{"title":"Coldplay - UNSTAGED (Full Show Rebroadcast).avi","uid":6782549,"size":2713965990,"categoryP":"video","categoryS":"music_videos","magnet":"?xt=urn:btih:973d9c7c9547d68db837e0032d72e95f1d23d0ba&amp;dn=Coldplay+-+UNSTAGED+%28Full+Show+Rebroadcast%29.avi&amp;tr=udp%3A%2F%2Ftracker.openbittorrent.com%3A80&amp;tr=udp%3A%2F%2Fopen.demonii.com%3A1337&amp;tr=udp%3A%2F%2Ftracker.coppersurfer.tk%3A6969&amp;tr=udp%3A%2F%2Fexodus.desync.com%3A6969","seeders":0,"leechers":0,"uploader":"forty2","files":1,"time":1319965875,"description":"\nColdplay 26 October 2011  \n\nAmerican Express UNSTAGED\nat Plaza de Toros de Las Ventas in Madrid\n\nAVI transcoded from mp4 (YouTube &amp; VEVO)\n\nWebcast directed by   Anton Corbijn\nCreative director     Phil Harvey\nSound engi            Dan Green\n\nincludes a 9 minute interview with the director on their\ninfluences, inspirations and Monty Python\n\n-------------------------------------------------------------\n\nconcert songs and timepoints ~ partial list\n\nhurts like heaven  11:20\nyellow  15:45\nin my place  20:00\n\nthe scientist  32:30\nviolet hill  38:30\ngod put a smile  42:00\n\nparadise  46:39\nup in flames  51:44\ntil kingdom come  55:10\npolitik  59:25\n\nviva la vida  1:04:32\nclocks  1:18:46\nrehab (for Amy)  1:23:00\n\nfix you  1:24:04\nevery teardrop  1:29:40\n\n\n-------------------------------------------------------------\n\nComplete name            : Coldplay - UNSTAGED (Full Show Rebroadcast).avi\nFormat                           : AVI \nFile size                        : 2,713,965,990\nDuration                         : 1hr 40:38\nOverall bit rate                 : 3596 Kbps\n\nVideo\nID                               : 0\nFormat                           : MPEG-4 Visual\nFormat profile                   : Advanced Simple@L5\nFormat settings, BVOP            : 2\nFormat settings, QPel            : No\nFormat settings, GMC             : No warppoints\nFormat settings, Matrix          : Default (H.263)\nCodec ID                         : XVID\nCodec ID/Hint                    : XviD\nDuration                         : 1h 40mn\nBit rate                         : 3456 Kbps\nWidth x Height                   : 1280 x 720 pixels\n                        \nDisplay aspect ratio             : 16:9\nFrame rate                       : 29.970 fps\nColor space                      : YUV\nChroma subsampling               : 4:2:0\nBit depth                        : 8 bits\nScan type                        : Progressive\nCompression mode                 : Lossy\nBits/(Pixel*Frame)               : 0.125\nStream size                      : 2.43 GiB (96%)\nWriting library                  : XviD 63\n\nAudio\nID                               : 1\nFormat                           : AC-3\nFormat/Info                      : Audio Coding 3\nMode extension                   : CM (complete main)\nCodec ID                         : 2000\nDuration                         : 1h 40mn\nBit rate mode                    : Constant\nBit rate                         : 128 Kbps\nChannel(s)                       : 2 channels\nChannel positions                : Front: L R\nSampling rate                    : 44.1 KHz\nBit depth                        : 16 bits\nCompression mode                 : Lossy\nStream size                      : 92.1 MiB (4%)\nAlignment                        : Aligned on interleaves\nInterleave, duration             : 35 ms (1.04 video frame)\n","torrent":{"xt":"urn:btih:973d9c7c9547d68db837e0032d72e95f1d23d0ba","amp;dn":"Coldplay+-+UNSTAGED+%28Full+Show+Rebroadcast%29.avi","amp;tr":["udp%3A%2F%2Ftracker.openbittorrent.com%3A80","udp%3A%2F%2Fopen.demonii.com%3A1337","udp%3A%2F%2Ftracker.coppersurfer.tk%3A6969","udp%3A%2F%2Fexodus.desync.com%3A6969"],"infoHash":"973d9c7c9547d68db837e0032d72e95f1d23d0ba","infoHashBuffer":{"type":"Buffer","data":[151,61,156,124,149,71,214,141,184,55,224,3,45,114,233,95,29,35,208,186]},"announce":[],"urlList":[]}}